<svg width="38" height="38" viewBox="0 0 38 38" fill="none" xmlns="http://www.w3.org/2000/svg">
<path d="M21.6442 34.8333H21.5492C21.2007 34.8123 20.8689 34.6767 20.6055 34.4477C20.342 34.2186 20.1617 33.9089 20.0925 33.5667L17.6542 21.5808C17.5921 21.2765 17.4419 20.9972 17.2224 20.7776C17.0028 20.5581 16.7234 20.4079 16.4192 20.3458L4.43333 17.9075C4.09049 17.8394 3.77982 17.6598 3.54976 17.3966C3.3197 17.1335 3.18318 16.8016 3.16149 16.4528C3.1398 16.1039 3.23415 15.7577 3.42985 15.468C3.62554 15.1784 3.91157 14.9617 4.24333 14.8517L29.5767 6.4125C29.861 6.29508 30.1734 6.26305 30.4757 6.32033C30.778 6.3776 31.057 6.52169 31.2787 6.735C31.5004 6.9483 31.6552 7.22157 31.7241 7.5214C31.793 7.82124 31.773 8.13465 31.6667 8.42333L23.2275 33.7567C23.1173 34.0844 22.9029 34.367 22.617 34.5614C22.3311 34.7559 21.9894 34.8514 21.6442 34.8333Z" fill="white"/>
</svg>
